<svg width="334" height="393" viewBox="0 0 334 393" fill="none" xmlns="http://www.w3.org/2000/svg">
<g opacity="0.3">
<path d="M187.884 388.013C193.423 238.206 133.104 187.687 85.4921 156.339C97.1004 99.4274 138.79 68.6783 138.79 68.6783" stroke="#D6EBDC" stroke-width="9" stroke-linecap="round" stroke-linejoin="round"/>
<path d="M177.818 62.2654C177.818 62.2654 158.441 93.6233 141.019 94.2813C141.019 94.2813 135.353 37.0061 137.533 25.4666C151.685 8.92834 182.168 5 199.591 5C217.013 5 230.949 16.7556 233.345 42.4469C249.893 42.6728 265.567 50.2938 268.837 57.4728C267.747 75.769 252.938 85.1283 238.57 90.569C224.202 96.0098 212.446 104.947 212.446 113.648C212.446 122.349 216.355 155.239 240.74 159.816C265.125 164.392 303.672 176.364 303.672 215.775C303.672 255.186 290.384 248.655 290.384 287.271C290.384 325.886 294.45 317.175 294.45 336.915C294.45 356.655 288.067 374.077 281.683 385.686" stroke="#D6EBDC" stroke-width="9" stroke-linecap="round" stroke-linejoin="round"/>
<path d="M248.872 382.209C248.872 382.209 256.139 348.523 256.139 332.565C256.139 316.606 242.567 295.835 228.258 277.833C215.923 262.306 183.74 275.83 184.908 316.174M286.093 178.259C318.551 181.599 341.197 153.138 322.037 118.883M85.492 156.339C87.525 165.335 89.1945 183.337 89.1945 183.337C78.0773 183.337 67.9913 192.735 61.6765 196.88C48.7915 205.326 35.2977 208.154 35.7691 223.396C40.4144 235.594 61.2444 236.968 76.3488 236.684L76.0149 245.169C60.9792 259.547 32.5773 291.779 32.5773 331.396C32.5773 377.554 66.3316 385.686 85.492 385.686C104.653 385.686 200.2 337.387 168.861 253.006" stroke="#D6EBDC" stroke-width="9" stroke-linecap="round" stroke-linejoin="round"/>
<path d="M7.03292 256.787C16.0288 257.661 25.8988 259.105 25.8988 273.335C25.8988 287.565 5 300.902 5 334.293C5 367.684 27.4308 385.676 85.4917 385.676M293.556 324.669C288.066 303.239 263.102 279.719 256.139 276.242C249.176 272.765 248.763 308.022 253.821 319.925" stroke="#D6EBDC" stroke-width="9" stroke-linecap="round" stroke-linejoin="round"/>
</g>
</svg>
