<svg width="214" height="35" viewBox="0 0 214 35" fill="none" xmlns="http://www.w3.org/2000/svg">
<rect width="107" height="35" rx="17.5" fill="#080809"/>
<g clip-path="url(#clip0_17_53)">
<path d="M28.5074 17.0018L18.4639 26.673C17.9935 26.3516 17.7143 25.817 17.7192 25.2473V8.75626C17.7143 8.18663 17.9935 7.65199 18.4639 7.33057L28.5074 17.0018Z" fill="#2196F3"/>
<path d="M32.0217 13.6236L28.5074 17.0018L18.4639 7.33053C18.5017 7.3012 18.5411 7.27392 18.5819 7.2488C19.1127 6.92708 19.7757 6.9167 20.3164 7.22156L32.0217 13.6236Z" fill="#4CAF50"/>
<path d="M36.2807 17.0017C36.2873 17.6447 35.9378 18.2387 35.3726 18.5454L32.0218 20.3798L28.5074 17.0017L32.0218 13.6235L35.3726 15.4579C35.9378 15.7646 36.2873 16.3586 36.2807 17.0017Z" fill="#F0BB1F"/>
<path d="M32.0217 20.3798L20.3164 26.7819C19.7745 27.0821 19.114 27.0717 18.5819 26.7547C18.5411 26.7296 18.5017 26.7023 18.4639 26.6729L28.5074 17.0017L32.0217 20.3798Z" fill="#F15A2B"/>
</g>
<path d="M48.024 11.8801H45.216V13.0001H46.712C46.512 13.5361 46.024 13.8641 45.28 13.8641C44.192 13.8641 43.52 13.1681 43.52 12.2161C43.52 11.2321 44.224 10.5361 45.168 10.5361C45.8 10.5361 46.304 10.8241 46.536 11.1921L47.624 10.5681C47.152 9.81609 46.248 9.28809 45.176 9.28809C43.528 9.28809 42.24 10.5841 42.24 12.2081C42.24 13.8161 43.504 15.1121 45.264 15.1121C46.832 15.1121 48.024 14.0721 48.024 12.3601V11.8801Z" fill="white"/>
<path d="M49.6256 13.7681V12.7761H51.6256V11.5601H49.6256V10.6321H51.8256V9.40009H48.3456V15.0001H51.8656V13.7681H49.6256Z" fill="white"/>
<path d="M55.9478 9.40009H51.7878V10.6321H53.2278V15.0001H54.5078V10.6321H55.9478V9.40009Z" fill="white"/>
<path d="M57.7081 9.40009V15.0001H58.9881V9.40009H57.7081Z" fill="white"/>
<path d="M63.3103 9.40009H59.1503V10.6321H60.5903V15.0001H61.8703V10.6321H63.3103V9.40009Z" fill="white"/>
<path d="M67.7426 15.1121C69.3506 15.1121 70.6546 13.8481 70.6546 12.2001C70.6546 10.5521 69.3506 9.28809 67.7426 9.28809C66.1346 9.28809 64.8306 10.5521 64.8306 12.2001C64.8306 13.8481 66.1346 15.1121 67.7426 15.1121ZM67.7426 13.8641C66.8306 13.8641 66.1106 13.2001 66.1106 12.2001C66.1106 11.2001 66.8306 10.5361 67.7426 10.5361C68.6546 10.5361 69.3746 11.2001 69.3746 12.2001C69.3746 13.2001 68.6546 13.8641 67.7426 13.8641Z" fill="white"/>
<path d="M74.0953 9.40009V12.4401L71.9353 9.40009H70.9753V15.0001H72.2553V11.9601L74.4153 15.0001H75.3753V9.40009H74.0953Z" fill="white"/>
<path d="M48.024 21.3921V21.6081C48.024 22.3068 47.776 22.8961 47.28 23.3761C46.784 23.8508 46.1307 24.0881 45.32 24.0881C44.4667 24.0881 43.7627 23.8108 43.208 23.2561C42.6533 22.6961 42.376 22.0108 42.376 21.2001C42.376 20.3894 42.6507 19.7068 43.2 19.1521C43.7493 18.5921 44.4453 18.3121 45.288 18.3121C45.8 18.3121 46.2693 18.4348 46.696 18.6801C47.128 18.9254 47.4613 19.2534 47.696 19.6641L47.32 19.8881C47.1333 19.5361 46.856 19.2534 46.488 19.0401C46.1253 18.8268 45.7253 18.7201 45.288 18.7201C44.5627 18.7201 43.9653 18.9601 43.496 19.4401C43.032 19.9148 42.8 20.5014 42.8 21.2001C42.8 21.8988 43.0347 22.4881 43.504 22.9681C43.9733 23.4428 44.5787 23.6801 45.32 23.6801C45.976 23.6801 46.5067 23.5014 46.912 23.1441C47.3173 22.7868 47.544 22.3361 47.592 21.7921H45.216V21.3921H48.024Z" fill="white"/>
<path d="M53.7026 23.2481C53.1426 23.8081 52.4599 24.0881 51.6546 24.0881C50.8493 24.0881 50.1666 23.8081 49.6066 23.2481C49.0466 22.6828 48.7666 22.0001 48.7666 21.2001C48.7666 20.4001 49.0466 19.7201 49.6066 19.1601C50.1666 18.5948 50.8493 18.3121 51.6546 18.3121C52.4599 18.3121 53.1426 18.5948 53.7026 19.1601C54.2626 19.7201 54.5426 20.4001 54.5426 21.2001C54.5426 22.0001 54.2626 22.6828 53.7026 23.2481ZM49.9026 22.9601C50.3826 23.4401 50.9666 23.6801 51.6546 23.6801C52.3426 23.6801 52.9239 23.4401 53.3986 22.9601C53.8786 22.4748 54.1186 21.8881 54.1186 21.2001C54.1186 20.5121 53.8786 19.9281 53.3986 19.4481C52.9239 18.9628 52.3426 18.7201 51.6546 18.7201C50.9666 18.7201 50.3826 18.9628 49.9026 19.4481C49.4279 19.9281 49.1906 20.5121 49.1906 21.2001C49.1906 21.8881 49.4279 22.4748 49.9026 22.9601Z" fill="white"/>
<path d="M60.2339 23.2481C59.6739 23.8081 58.9912 24.0881 58.1859 24.0881C57.3805 24.0881 56.6979 23.8081 56.1379 23.2481C55.5779 22.6828 55.2979 22.0001 55.2979 21.2001C55.2979 20.4001 55.5779 19.7201 56.1379 19.1601C56.6979 18.5948 57.3805 18.3121 58.1859 18.3121C58.9912 18.3121 59.6739 18.5948 60.2339 19.1601C60.7939 19.7201 61.0739 20.4001 61.0739 21.2001C61.0739 22.0001 60.7939 22.6828 60.2339 23.2481ZM56.4339 22.9601C56.9139 23.4401 57.4979 23.6801 58.1859 23.6801C58.8739 23.6801 59.4552 23.4401 59.9299 22.9601C60.4099 22.4748 60.6499 21.8881 60.6499 21.2001C60.6499 20.5121 60.4099 19.9281 59.9299 19.4481C59.4552 18.9628 58.8739 18.7201 58.1859 18.7201C57.4979 18.7201 56.9139 18.9628 56.4339 19.4481C55.9592 19.9281 55.7219 20.5121 55.7219 21.2001C55.7219 21.8881 55.9592 22.4748 56.4339 22.9601Z" fill="white"/>
<path d="M67.4771 21.3921V21.6081C67.4771 22.3068 67.2291 22.8961 66.7331 23.3761C66.2371 23.8508 65.5838 24.0881 64.7731 24.0881C63.9198 24.0881 63.2158 23.8108 62.6611 23.2561C62.1064 22.6961 61.8291 22.0108 61.8291 21.2001C61.8291 20.3894 62.1038 19.7068 62.6531 19.1521C63.2024 18.5921 63.8984 18.3121 64.7411 18.3121C65.2531 18.3121 65.7224 18.4348 66.1491 18.6801C66.5811 18.9254 66.9144 19.2534 67.1491 19.6641L66.7731 19.8881C66.5864 19.5361 66.3091 19.2534 65.9411 19.0401C65.5784 18.8268 65.1784 18.7201 64.7411 18.7201C64.0158 18.7201 63.4184 18.9601 62.9491 19.4401C62.4851 19.9148 62.2531 20.5014 62.2531 21.2001C62.2531 21.8988 62.4878 22.4881 62.9571 22.9681C63.4264 23.4428 64.0318 23.6801 64.7731 23.6801C65.4291 23.6801 65.9598 23.5014 66.3651 23.1441C66.7705 22.7868 66.9971 22.3361 67.0451 21.7921H64.6691V21.3921H67.4771Z" fill="white"/>
<path d="M68.9637 23.6001H71.6037V24.0001H68.5397V18.4001H68.9637V23.6001Z" fill="white"/>
<path d="M72.9091 23.6001H75.7091V24.0001H72.4851V18.4001H75.6691V18.8001H72.9091V20.9761H75.4691V21.3761H72.9091V23.6001Z" fill="white"/>
<path d="M80.7875 18.4001C81.2888 18.4001 81.7048 18.5654 82.0355 18.8961C82.3662 19.2268 82.5315 19.6401 82.5315 20.1361C82.5315 20.6321 82.3662 21.0454 82.0355 21.3761C81.7048 21.7014 81.2888 21.8641 80.7875 21.8641H79.3075V24.0001H78.8835V18.4001H80.7875ZM80.7875 21.4641C81.1715 21.4641 81.4862 21.3388 81.7315 21.0881C81.9822 20.8374 82.1075 20.5201 82.1075 20.1361C82.1075 19.7468 81.9822 19.4268 81.7315 19.1761C81.4862 18.9254 81.1715 18.8001 80.7875 18.8001H79.3075V21.4641H80.7875Z" fill="white"/>
<path d="M84.0028 23.6001H86.6428V24.0001H83.5788V18.4001H84.0028V23.6001Z" fill="white"/>
<path d="M91.4484 24.0001L90.9044 22.5761H88.0964L87.5524 24.0001H87.1044L89.2804 18.4001H89.7284L91.8964 24.0001H91.4484ZM88.2564 22.1761H90.7524L89.5044 18.9201L88.2564 22.1761Z" fill="white"/>
<path d="M95.8809 18.4001L93.8409 21.6961V24.0001H93.4169V21.6961L91.3769 18.4001H91.8569L93.6329 21.2881L95.4009 18.4001H95.8809Z" fill="white"/>
<rect x="114" width="100" height="35" rx="17.5" fill="#080809"/>
<path d="M135.789 23.9998C133.408 23.9861 131.438 19.1251 131.438 16.6495C131.438 12.6057 134.472 11.7203 135.641 11.7203C136.168 11.7203 136.73 11.9273 137.227 12.1103C137.574 12.2381 137.933 12.3699 138.132 12.3699C138.252 12.3699 138.533 12.2578 138.782 12.1593C139.312 11.9483 139.971 11.686 140.74 11.686C140.741 11.686 140.743 11.686 140.744 11.686C141.318 11.686 143.057 11.8119 144.102 13.382L144.347 13.7501L143.995 14.016C143.491 14.396 142.572 15.089 142.572 16.4619C142.572 18.0878 143.613 18.7132 144.113 19.0139C144.333 19.1467 144.562 19.2835 144.562 19.5829C144.562 19.7784 143.002 23.9756 140.736 23.9756C140.182 23.9756 139.79 23.809 139.444 23.662C139.095 23.5133 138.793 23.3851 138.295 23.3851C138.042 23.3851 137.722 23.5046 137.384 23.6314C136.922 23.8039 136.399 23.9998 135.805 23.9998H135.789Z" fill="white"/>
<path d="M140.98 8C141.039 10.1274 139.517 11.6033 137.997 11.5107C137.747 9.81297 139.517 8 140.98 8Z" fill="white"/>
<path d="M153.03 13.0001H154.08L152.652 8.80012H151.428L150 13.0001H151.05L151.26 12.3401H152.82L153.03 13.0001ZM151.548 11.4401L152.04 9.89812L152.532 11.4401H151.548Z" fill="white"/>
<path d="M156.205 10.0001L155.581 11.9021L154.957 10.0001H153.961L155.071 13.0001H156.091L157.201 10.0001H156.205Z" fill="white"/>
<path d="M159.592 10.0001V10.2821C159.394 10.0541 159.1 9.91612 158.698 9.91612C157.912 9.91612 157.264 10.6061 157.264 11.5001C157.264 12.3941 157.912 13.0841 158.698 13.0841C159.1 13.0841 159.394 12.9461 159.592 12.7181V13.0001H160.492V10.0001H159.592ZM158.878 12.2321C158.464 12.2321 158.164 11.9501 158.164 11.5001C158.164 11.0501 158.464 10.7681 158.878 10.7681C159.292 10.7681 159.592 11.0501 159.592 11.5001C159.592 11.9501 159.292 12.2321 158.878 12.2321Z" fill="white"/>
<path d="M161.152 13.0001H162.052V8.62012H161.152V13.0001Z" fill="white"/>
<path d="M163.161 9.73612C163.455 9.73612 163.701 9.49012 163.701 9.19612C163.701 8.90212 163.455 8.65612 163.161 8.65612C162.867 8.65612 162.621 8.90212 162.621 9.19612C162.621 9.49012 162.867 9.73612 163.161 9.73612ZM162.711 13.0001H163.611V10.0001H162.711V13.0001Z" fill="white"/>
<path d="M166.063 9.91612C165.661 9.91612 165.367 10.0541 165.169 10.2821V8.80012H164.269V13.0001H165.169V12.7181C165.367 12.9461 165.661 13.0841 166.063 13.0841C166.849 13.0841 167.497 12.3941 167.497 11.5001C167.497 10.6061 166.849 9.91612 166.063 9.91612ZM165.883 12.2321C165.469 12.2321 165.169 11.9501 165.169 11.5001C165.169 11.0501 165.469 10.7681 165.883 10.7681C166.297 10.7681 166.597 11.0501 166.597 11.5001C166.597 11.9501 166.297 12.2321 165.883 12.2321Z" fill="white"/>
<path d="M168.008 13.0001H168.908V8.62012H168.008V13.0001Z" fill="white"/>
<path d="M170.37 11.8601H172.5C172.524 11.7461 172.536 11.6261 172.536 11.5001C172.536 10.5941 171.888 9.91612 171.012 9.91612C170.064 9.91612 169.416 10.6061 169.416 11.5001C169.416 12.3941 170.052 13.0841 171.078 13.0841C171.648 13.0841 172.092 12.8741 172.386 12.4661L171.666 12.0521C171.546 12.1841 171.336 12.2801 171.09 12.2801C170.76 12.2801 170.484 12.1721 170.37 11.8601ZM170.352 11.1881C170.436 10.8821 170.664 10.7141 171.006 10.7141C171.276 10.7141 171.546 10.8401 171.642 11.1881H170.352Z" fill="white"/>
<path d="M175.987 13.0841C176.869 13.0841 177.577 12.3941 177.577 11.5001C177.577 10.6061 176.869 9.91612 175.987 9.91612C175.105 9.91612 174.397 10.6061 174.397 11.5001C174.397 12.3941 175.105 13.0841 175.987 13.0841ZM175.987 12.2081C175.597 12.2081 175.297 11.9261 175.297 11.5001C175.297 11.0741 175.597 10.7921 175.987 10.7921C176.377 10.7921 176.677 11.0741 176.677 11.5001C176.677 11.9261 176.377 12.2081 175.987 12.2081Z" fill="white"/>
<path d="M179.844 9.91612C179.448 9.91612 179.148 10.0601 178.986 10.2821V10.0001H178.086V13.0001H178.986V11.3621C178.986 10.9361 179.214 10.7441 179.544 10.7441C179.832 10.7441 180.066 10.9181 180.066 11.2901V13.0001H180.966V11.1581C180.966 10.3481 180.45 9.91612 179.844 9.91612Z" fill="white"/>
<path d="M184.842 10.8641V10.0001H184.224V9.16012L183.324 9.43012V10.0001H182.844V10.8641H183.324V11.9261C183.324 12.7661 183.666 13.1201 184.842 13.0001V12.1841C184.446 12.2081 184.224 12.1841 184.224 11.9261V10.8641H184.842Z" fill="white"/>
<path d="M187.109 9.91612C186.713 9.91612 186.413 10.0601 186.251 10.2821V8.80012H185.351V13.0001H186.251V11.3621C186.251 10.9361 186.479 10.7441 186.809 10.7441C187.097 10.7441 187.331 10.9181 187.331 11.2901V13.0001H188.231V11.1581C188.231 10.3481 187.715 9.91612 187.109 9.91612Z" fill="white"/>
<path d="M189.654 11.8601H191.784C191.808 11.7461 191.82 11.6261 191.82 11.5001C191.82 10.5941 191.172 9.91612 190.296 9.91612C189.348 9.91612 188.7 10.6061 188.7 11.5001C188.7 12.3941 189.336 13.0841 190.362 13.0841C190.932 13.0841 191.376 12.8741 191.67 12.4661L190.95 12.0521C190.83 12.1841 190.62 12.2801 190.374 12.2801C190.044 12.2801 189.768 12.1721 189.654 11.8601ZM189.636 11.1881C189.72 10.8821 189.948 10.7141 190.29 10.7141C190.56 10.7141 190.83 10.8401 190.926 11.1881H189.636Z" fill="white"/>
<path d="M155.05 24.0001H156.8L154.42 17.0001H152.38L150 24.0001H151.75L152.1 22.9001H154.7L155.05 24.0001ZM152.58 21.4001L153.4 18.8301L154.22 21.4001H152.58Z" fill="white"/>
<path d="M160.337 18.8601C159.667 18.8601 159.177 19.0901 158.847 19.4701V19.0001H157.347V26.0001H158.847V23.5301C159.177 23.9101 159.667 24.1401 160.337 24.1401C161.647 24.1401 162.727 22.9901 162.727 21.5001C162.727 20.0101 161.647 18.8601 160.337 18.8601ZM160.037 22.7201C159.347 22.7201 158.847 22.2501 158.847 21.5001C158.847 20.7501 159.347 20.2801 160.037 20.2801C160.727 20.2801 161.227 20.7501 161.227 21.5001C161.227 22.2501 160.727 22.7201 160.037 22.7201Z" fill="white"/>
<path d="M166.567 18.8601C165.897 18.8601 165.407 19.0901 165.077 19.4701V19.0001H163.577V26.0001H165.077V23.5301C165.407 23.9101 165.897 24.1401 166.567 24.1401C167.877 24.1401 168.957 22.9901 168.957 21.5001C168.957 20.0101 167.877 18.8601 166.567 18.8601ZM166.267 22.7201C165.577 22.7201 165.077 22.2501 165.077 21.5001C165.077 20.7501 165.577 20.2801 166.267 20.2801C166.957 20.2801 167.457 20.7501 167.457 21.5001C167.457 22.2501 166.957 22.7201 166.267 22.7201Z" fill="white"/>
<path d="M169.808 24.0001H171.308V16.7001H169.808V24.0001Z" fill="white"/>
<path d="M173.745 22.1001H177.295C177.335 21.9101 177.355 21.7101 177.355 21.5001C177.355 19.9901 176.275 18.8601 174.815 18.8601C173.235 18.8601 172.155 20.0101 172.155 21.5001C172.155 22.9901 173.215 24.1401 174.925 24.1401C175.875 24.1401 176.615 23.7901 177.105 23.1101L175.905 22.4201C175.705 22.6401 175.355 22.8001 174.945 22.8001C174.395 22.8001 173.935 22.6201 173.745 22.1001ZM173.715 20.9801C173.855 20.4701 174.235 20.1901 174.805 20.1901C175.255 20.1901 175.705 20.4001 175.865 20.9801H173.715Z" fill="white"/>
<path d="M183.206 24.1401C184.726 24.1401 185.806 23.3401 185.806 21.9901C185.806 20.5101 184.616 20.1401 183.556 19.8201C182.466 19.4901 182.296 19.2701 182.296 18.9501C182.296 18.6701 182.546 18.4201 183.046 18.4201C183.686 18.4201 184.016 18.7301 184.256 19.2301L185.606 18.4401C185.096 17.4101 184.196 16.8601 183.046 16.8601C181.836 16.8601 180.696 17.6401 180.696 18.9901C180.696 20.3301 181.716 20.8301 182.756 21.1201C183.806 21.4101 184.206 21.5801 184.206 22.0101C184.206 22.2801 184.016 22.5801 183.256 22.5801C182.466 22.5801 182.036 22.1901 181.786 21.6101L180.406 22.4101C180.796 23.4401 181.736 24.1401 183.206 24.1401Z" fill="white"/>
<path d="M189.339 20.4401V19.0001H188.309V17.6001L186.809 18.0501V19.0001H186.009V20.4401H186.809V22.2101C186.809 23.6101 187.379 24.2001 189.339 24.0001V22.6401C188.679 22.6801 188.309 22.6401 188.309 22.2101V20.4401H189.339Z" fill="white"/>
<path d="M192.491 24.1401C193.961 24.1401 195.141 22.9901 195.141 21.5001C195.141 20.0101 193.961 18.8601 192.491 18.8601C191.021 18.8601 189.841 20.0101 189.841 21.5001C189.841 22.9901 191.021 24.1401 192.491 24.1401ZM192.491 22.6801C191.841 22.6801 191.341 22.2101 191.341 21.5001C191.341 20.7901 191.841 20.3201 192.491 20.3201C193.141 20.3201 193.641 20.7901 193.641 21.5001C193.641 22.2101 193.141 22.6801 192.491 22.6801Z" fill="white"/>
<path d="M197.489 19.8901V19.0001H195.989V24.0001H197.489V21.7401C197.489 20.7501 198.369 20.5001 198.989 20.6001V18.9001C198.359 18.9001 197.689 19.2201 197.489 19.8901Z" fill="white"/>
<path d="M200.884 22.1001H204.434C204.474 21.9101 204.494 21.7101 204.494 21.5001C204.494 19.9901 203.414 18.8601 201.954 18.8601C200.374 18.8601 199.294 20.0101 199.294 21.5001C199.294 22.9901 200.354 24.1401 202.064 24.1401C203.014 24.1401 203.754 23.7901 204.244 23.1101L203.044 22.4201C202.844 22.6401 202.494 22.8001 202.084 22.8001C201.534 22.8001 201.074 22.6201 200.884 22.1001ZM200.854 20.9801C200.994 20.4701 201.374 20.1901 201.944 20.1901C202.394 20.1901 202.844 20.4001 203.004 20.9801H200.854Z" fill="white"/>
<defs>
<clipPath id="clip0_17_53">
<rect width="20" height="20" fill="white" transform="translate(17 7)"/>
</clipPath>
</defs>
</svg>
