<svg width="297" height="186" viewBox="0 0 297 186" fill="none" xmlns="http://www.w3.org/2000/svg">
<path d="M218.489 69.4428C223.4 69.4428 226.422 62.25 226.422 57.7071C226.422 53.9214 224.533 49.3785 220.756 49.3785C215.844 49.3785 212.822 56.5714 212.822 61.1143C212.822 64.9 214.711 69.4428 218.489 69.4428ZM204.133 69.4428C207.911 69.4428 209.8 64.9 209.8 61.1143C209.8 56.1928 206.778 49 201.867 49C198.089 49 196.2 53.5428 196.2 57.3285C195.822 62.25 198.844 69.4428 204.133 69.4428ZM232.089 65.6571C227.178 65.6571 223.778 72.4714 223.778 77.3928C223.778 80.8 225.289 84.2071 228.689 84.2071C233.6 84.2071 237 77.3928 237 72.4714C237 69.0643 235.111 65.6571 232.089 65.6571ZM199.222 77.3928C199.222 72.4714 195.444 65.6571 190.911 65.6571C187.511 65.6571 186 69.0643 186 72.4714C186 77.3928 189.778 84.2071 194.311 84.2071C197.711 84.2071 199.222 80.8 199.222 77.3928ZM211.311 76.6357C203.756 76.6357 193.556 88.75 193.556 97.0785C193.556 100.864 196.2 102 199.222 102C203.756 102 207.156 98.9714 211.311 98.9714C215.089 98.9714 218.489 102 222.644 102C225.667 102 229.067 101.243 229.067 97.0785C229.067 88.75 218.867 76.6357 211.311 76.6357Z" fill="#D6EBDC" fill-opacity="0.8"/>
<path d="M142.383 107.45C142.374 108.113 142.454 108.699 142.623 109.205C142.792 109.719 143.03 110.15 143.338 110.499C143.653 110.855 144.029 111.124 144.467 111.306C144.905 111.488 145.387 111.582 145.915 111.589C147.011 111.604 147.872 111.276 148.497 110.604C149.122 109.94 149.443 108.92 149.462 107.545L149.499 104.785L142.42 104.69L142.383 107.45ZM151.298 107.569C151.283 108.657 151.142 109.599 150.876 110.396C150.617 111.2 150.252 111.864 149.781 112.385C149.31 112.907 148.745 113.291 148.085 113.539C147.426 113.794 146.692 113.916 145.884 113.905C145.084 113.894 144.354 113.745 143.694 113.456C143.034 113.167 142.467 112.747 141.995 112.197C141.522 111.654 141.155 110.981 140.894 110.178C140.64 109.382 140.521 108.465 140.535 107.425L140.572 104.665L134.14 104.579L134.171 102.263L151.366 102.494L151.298 107.569Z" fill="#4F4F4F"/>
<path d="M142.442 130.779L130.983 126.72L131.408 125.521C131.51 125.234 131.713 125.102 132.019 125.126L133.308 125.404C132.934 124.712 132.687 123.996 132.566 123.257C132.454 122.522 132.539 121.754 132.822 120.955C133.044 120.329 133.342 119.811 133.717 119.4C134.096 119 134.532 118.704 135.024 118.514C135.515 118.323 136.059 118.24 136.653 118.263C137.244 118.295 137.864 118.425 138.513 118.655L145.82 121.243L145.106 123.257L137.799 120.668C136.932 120.361 136.192 120.319 135.578 120.543C134.961 120.775 134.508 121.297 134.22 122.112C134.009 122.708 133.952 123.311 134.049 123.923C134.152 124.545 134.374 125.162 134.717 125.776L143.155 128.765L142.442 130.779Z" fill="#4F4F4F"/>
<path d="M131.342 145.486C131.302 145.384 131.279 145.294 131.273 145.214C131.267 145.134 131.294 145.047 131.354 144.953C131.418 144.852 131.529 144.766 131.688 144.696C131.853 144.63 132.044 144.538 132.261 144.42C132.474 144.309 132.704 144.148 132.953 143.936C133.204 143.735 133.449 143.446 133.69 143.068C134.011 142.561 134.204 142.058 134.266 141.557C134.335 141.061 134.285 140.574 134.114 140.096C133.94 139.625 133.656 139.169 133.262 138.729C132.865 138.296 132.369 137.891 131.775 137.513C131.154 137.118 130.555 136.837 129.979 136.67C129.409 136.507 128.877 136.449 128.384 136.495C127.892 136.552 127.443 136.707 127.035 136.96C126.631 137.224 126.282 137.586 125.99 138.045C125.711 138.484 125.532 138.877 125.453 139.225C125.381 139.577 125.351 139.885 125.364 140.149C125.372 140.42 125.388 140.648 125.412 140.834C125.438 141.031 125.413 141.19 125.336 141.312C125.241 141.46 125.111 141.539 124.945 141.547L123.964 141.634C123.829 141.236 123.754 140.832 123.738 140.424C123.723 140.016 123.753 139.604 123.828 139.187C123.906 138.782 124.028 138.381 124.195 137.984C124.361 137.588 124.563 137.204 124.799 136.833C125.207 136.191 125.705 135.669 126.293 135.265C126.877 134.869 127.52 134.61 128.223 134.488C128.933 134.37 129.689 134.405 130.489 134.592C131.29 134.779 132.109 135.138 132.946 135.67C133.709 136.155 134.348 136.708 134.863 137.33C135.374 137.958 135.734 138.622 135.942 139.324C136.153 140.036 136.201 140.773 136.086 141.534C135.968 142.303 135.662 143.075 135.168 143.851C134.709 144.574 134.187 145.133 133.603 145.53C133.022 145.937 132.383 146.219 131.687 146.374L131.342 145.486Z" fill="#4F4F4F"/>
<path d="M120.774 157.83C120.759 157.722 120.758 157.629 120.77 157.55C120.783 157.471 120.829 157.392 120.909 157.314C120.995 157.231 121.123 157.173 121.294 157.142C121.469 157.116 121.677 157.071 121.915 157.007C122.148 156.948 122.41 156.844 122.7 156.695C122.991 156.558 123.297 156.334 123.618 156.021C124.048 155.603 124.352 155.158 124.529 154.685C124.711 154.218 124.774 153.733 124.719 153.228C124.659 152.73 124.488 152.221 124.207 151.702C123.92 151.189 123.531 150.679 123.041 150.174C122.528 149.647 122.011 149.235 121.489 148.938C120.973 148.648 120.469 148.468 119.978 148.399C119.486 148.341 119.013 148.388 118.558 148.54C118.104 148.703 117.681 148.974 117.291 149.353C116.918 149.715 116.653 150.056 116.495 150.377C116.343 150.703 116.243 150.995 116.194 151.255C116.139 151.52 116.102 151.746 116.082 151.932C116.062 152.13 116.001 152.279 115.898 152.379C115.771 152.502 115.626 152.548 115.463 152.517L114.489 152.376C114.45 151.956 114.47 151.547 114.549 151.146C114.629 150.746 114.753 150.351 114.923 149.963C115.092 149.587 115.304 149.225 115.558 148.878C115.812 148.531 116.097 148.204 116.412 147.897C116.957 147.368 117.563 146.975 118.228 146.719C118.888 146.468 119.574 146.365 120.287 146.409C121.004 146.459 121.731 146.668 122.467 147.035C123.203 147.402 123.916 147.941 124.608 148.653C125.237 149.301 125.731 149.987 126.088 150.711C126.44 151.44 126.636 152.17 126.676 152.9C126.716 153.642 126.592 154.37 126.305 155.084C126.012 155.804 125.535 156.485 124.875 157.126C124.261 157.722 123.624 158.146 122.964 158.396C122.304 158.658 121.618 158.784 120.905 158.774L120.774 157.83Z" fill="#4F4F4F"/>
<path d="M111.782 165.028L106.139 154.261L108.031 153.27L113.674 164.036L111.782 165.028ZM113.15 168.62C113.053 168.435 113.001 168.241 112.994 168.037C112.983 167.844 113.008 167.651 113.069 167.456C113.126 167.273 113.221 167.101 113.354 166.941C113.48 166.785 113.635 166.658 113.819 166.562C114.003 166.465 114.195 166.41 114.395 166.395C114.588 166.384 114.777 166.407 114.96 166.465C115.148 166.529 115.318 166.621 115.47 166.739C115.626 166.865 115.753 167.02 115.849 167.204C115.946 167.389 116.002 167.581 116.016 167.781C116.034 167.988 116.015 168.184 115.958 168.367C115.904 168.558 115.818 168.729 115.699 168.882C115.573 169.038 115.418 169.165 115.234 169.261C115.05 169.358 114.858 169.413 114.657 169.428C114.45 169.446 114.253 169.423 114.066 169.359C113.875 169.305 113.7 169.212 113.54 169.079C113.376 168.957 113.246 168.804 113.15 168.62Z" fill="#4F4F4F"/>
<path d="M100.939 158.238L103.384 170.146L102.126 170.404C101.828 170.465 101.614 170.358 101.484 170.082L101.08 168.891C100.753 169.522 100.35 170.066 99.872 170.524C99.3942 170.981 98.7949 171.284 98.0739 171.432C97.2746 171.596 96.5822 171.505 95.9968 171.16C95.4036 170.816 94.9192 170.287 94.5438 169.572C94.4598 170.038 94.3168 170.455 94.1147 170.823C93.9048 171.193 93.6522 171.515 93.3571 171.787C93.0619 172.06 92.7359 172.283 92.3791 172.454C92.0144 172.627 91.6361 172.753 91.2443 172.834C90.6174 172.962 90.0401 172.975 89.5124 172.871C88.9784 172.776 88.5036 172.571 88.0878 172.257C87.6642 171.943 87.3043 171.523 87.0082 170.996C86.7138 170.477 86.4926 169.856 86.3446 169.135L84.7882 161.553L86.8923 161.122L88.4487 168.703C88.6401 169.636 88.9886 170.299 89.4943 170.694C90.0015 171.096 90.6391 171.218 91.4071 171.061C91.7519 170.99 92.0682 170.86 92.3559 170.67C92.6374 170.49 92.8716 170.258 93.0584 169.975C93.2453 169.691 93.3722 169.355 93.4393 168.965C93.5001 168.585 93.4823 168.16 93.3858 167.69L91.8294 160.108L93.9335 159.676L95.4899 167.258C95.6861 168.214 96.0245 168.888 96.505 169.279C96.9855 169.671 97.5941 169.791 98.3308 169.64C98.848 169.533 99.297 169.294 99.678 168.922C100.061 168.558 100.387 168.099 100.657 167.545L98.8353 158.67L100.939 158.238Z" fill="#4F4F4F"/>
<path d="M69.0083 166.707C69.9921 166.744 70.8356 166.723 71.5389 166.644C72.2336 166.572 72.8074 166.452 73.2604 166.283C73.7053 166.114 74.0371 165.901 74.2556 165.644C74.4662 165.386 74.5832 165.089 74.6068 164.754C74.6292 164.435 74.5966 164.156 74.5091 163.917C74.4216 163.678 74.2954 163.477 74.1305 163.313C73.957 163.157 73.7531 163.034 73.5187 162.945C73.2758 162.864 73.0147 162.814 72.7354 162.794C72.3603 162.768 72.0147 162.78 71.6984 162.83C71.3815 162.888 71.0824 162.979 70.801 163.103C70.5116 163.227 70.2362 163.381 69.9748 163.563C69.7054 163.744 69.4421 163.954 69.1847 164.193L69.0083 166.707ZM75.5435 172.146C74.8277 172.745 74.0716 173.177 73.2751 173.442C72.4786 173.707 71.6095 173.806 70.6678 173.74C69.9895 173.693 69.3948 173.539 68.8838 173.278C68.3728 173.018 67.9517 172.675 67.6206 172.251C67.2895 171.827 67.0521 171.325 66.9083 170.746C66.7645 170.166 66.7165 169.537 66.7641 168.859L67.3086 161.102L68.2543 161.168C68.4617 161.183 68.6191 161.226 68.7264 161.298C68.833 161.377 68.9113 161.519 68.9611 161.723L69.1199 162.889C69.4598 162.616 69.7895 162.375 70.109 162.165C70.428 161.963 70.7606 161.793 71.107 161.657C71.4528 161.529 71.8201 161.439 72.2087 161.386C72.59 161.324 73.012 161.31 73.4749 161.342C73.9457 161.375 74.3842 161.47 74.7902 161.627C75.1956 161.792 75.5447 162.017 75.8375 162.302C76.1222 162.587 76.3424 162.935 76.4979 163.347C76.6449 163.766 76.6991 164.251 76.6605 164.802C76.6268 165.281 76.463 165.73 76.1688 166.151C75.8741 166.579 75.4194 166.944 74.8048 167.246C74.1901 167.548 73.4004 167.773 72.4356 167.922C71.4703 168.079 70.2962 168.124 68.9133 168.059L68.8469 169.005C68.7808 169.947 68.9345 170.671 69.3079 171.179C69.6807 171.694 70.2581 171.979 71.0402 172.034C71.5669 172.071 72.0146 172.034 72.3832 171.924C72.7433 171.821 73.0609 171.695 73.3361 171.546C73.6026 171.404 73.8365 171.272 74.0375 171.15C74.23 171.035 74.418 170.984 74.6016 170.997C74.7452 171.007 74.8664 171.052 74.9651 171.131C75.0633 171.218 75.1443 171.32 75.2083 171.437L75.5435 172.146Z" fill="#4F4F4F"/>
<path d="M53.8612 167.638C53.2149 168.288 52.5492 168.734 51.8639 168.978C51.1759 169.229 50.4525 169.216 49.6936 168.938C49.4531 168.85 49.2336 168.74 49.0349 168.608C48.8287 168.473 48.6598 168.318 48.5282 168.142L49.2226 166.696C49.3363 166.525 49.4833 166.472 49.6637 166.538C49.7689 166.577 49.9147 166.656 50.1011 166.775C50.2875 166.894 50.5084 167 50.7639 167.094C51.1245 167.225 51.4669 167.291 51.7908 167.29C52.1073 167.287 52.4167 167.221 52.719 167.093C53.011 166.97 53.3035 166.787 53.5965 166.545C53.8791 166.307 54.1632 166.019 54.4488 165.681L57.0852 158.467L59.1027 159.205L54.9297 170.622L53.7801 170.202C53.5622 170.122 53.4271 170.026 53.3746 169.913C53.3222 169.8 53.318 169.637 53.3621 169.423L53.8612 167.638Z" fill="#4F4F4F"/>
<path d="M45.3223 150.983C46.1231 151.512 46.5927 152.144 46.731 152.878C46.8626 153.607 46.6505 154.392 46.0947 155.233L41.9924 161.44L43.2138 162.247C43.3206 162.318 43.3908 162.407 43.4245 162.516C43.4539 162.631 43.4244 162.756 43.3362 162.889L42.8664 163.6L41.0656 162.712L38.5842 165.574C38.498 165.661 38.4017 165.712 38.2952 165.728C38.1777 165.746 38.0622 165.718 37.9488 165.643L37.0478 165.048L39.3569 161.554L36.4237 159.615L37.2772 158.324L40.2105 160.262L44.2333 154.176C44.5156 153.748 44.6217 153.363 44.5516 153.019C44.4814 152.676 44.2828 152.396 43.9558 152.18C43.7689 152.056 43.5933 151.974 43.429 151.932C43.2535 151.893 43.0959 151.87 42.9561 151.864C42.8163 151.858 42.6975 151.856 42.5999 151.859C42.4912 151.864 42.4102 151.849 42.3568 151.813C42.2634 151.752 42.2174 151.64 42.219 151.478L42.2608 150.283C42.7575 150.199 43.2779 150.217 43.822 150.336C44.3617 150.463 44.8617 150.678 45.3223 150.983Z" fill="#4F4F4F"/>
<path d="M37.2822 147.653C37.124 147.788 36.9515 147.888 36.7648 147.953C36.5729 148.011 36.3837 148.036 36.1971 148.027C36.0054 148.012 35.8194 147.96 35.6391 147.872C35.4588 147.784 35.3011 147.661 35.1661 147.503C35.0311 147.345 34.9343 147.17 34.8757 146.978C34.8171 146.786 34.7954 146.594 34.8106 146.402C34.8257 146.211 34.8773 146.025 34.9654 145.844C35.0534 145.664 35.1765 145.506 35.3348 145.371C35.4991 145.231 35.6772 145.132 35.8691 145.073C36.0549 145.02 36.2436 145.001 36.4354 145.016C36.6271 145.031 36.8101 145.085 36.9843 145.178C37.1646 145.266 37.3222 145.39 37.4573 145.548C37.5923 145.706 37.6891 145.881 37.7477 146.073C37.8123 146.26 37.8371 146.449 37.8219 146.641C37.8016 146.826 37.7504 147.007 37.6685 147.182C37.5752 147.356 37.4465 147.513 37.2822 147.653Z" fill="#4F4F4F"/>
<path d="M21.6926 138.271C21.798 138.297 21.8849 138.332 21.9532 138.373C22.0215 138.415 22.0763 138.488 22.1178 138.592C22.1623 138.703 22.1666 138.844 22.1307 139.013C22.0875 139.185 22.0501 139.394 22.0186 139.639C21.9842 139.877 21.9802 140.158 22.0065 140.484C22.0225 140.805 22.1135 141.173 22.2794 141.589C22.5016 142.147 22.7975 142.597 23.167 142.941C23.5291 143.287 23.9537 143.531 24.4408 143.673C24.925 143.807 25.4605 143.843 26.0474 143.782C26.6313 143.712 27.2502 143.547 27.9041 143.287C28.5878 143.014 29.166 142.693 29.6388 142.324C30.1042 141.957 30.4627 141.56 30.7142 141.133C30.9553 140.701 31.0925 140.246 31.1257 139.767C31.1485 139.285 31.0592 138.79 30.8577 138.285C30.6651 137.802 30.4509 137.427 30.215 137.159C29.9716 136.894 29.7394 136.69 29.5182 136.546C29.294 136.394 29.0996 136.273 28.9348 136.184C28.7596 136.09 28.6453 135.976 28.592 135.843C28.5268 135.679 28.5396 135.528 28.6304 135.388L29.1327 134.542C29.5351 134.666 29.9063 134.841 30.2463 135.067C30.5862 135.293 30.9031 135.558 31.1969 135.863C31.4803 136.164 31.734 136.497 31.9579 136.865C32.1818 137.232 32.3752 137.62 32.5382 138.029C32.8197 138.734 32.9518 139.444 32.9347 140.157C32.9146 140.863 32.7482 141.536 32.4356 142.178C32.1155 142.822 31.6454 143.414 31.0253 143.954C30.4052 144.494 29.6344 144.948 28.713 145.315C27.8733 145.65 27.0508 145.845 26.2456 145.899C25.4374 145.945 24.688 145.848 23.9975 145.607C23.2966 145.361 22.6708 144.969 22.1203 144.43C21.5668 143.884 21.1197 143.184 20.7789 142.33C20.4619 141.534 20.3134 140.784 20.3335 140.078C20.3432 139.368 20.4888 138.686 20.7703 138.031L21.6926 138.271Z" fill="#4F4F4F"/>
<path d="M14.6549 124.878C14.5122 124.002 14.5297 123.188 14.7075 122.438C14.8853 121.688 15.2021 121.02 15.6581 120.435C16.114 119.85 16.7037 119.365 17.4272 118.98C18.1416 118.588 18.9685 118.316 19.9082 118.163C20.8557 118.008 21.7303 118.004 22.5321 118.149C23.3325 118.286 24.0417 118.56 24.6596 118.97C25.2775 119.38 25.7897 119.912 26.1963 120.568C26.5949 121.224 26.8656 121.991 27.0083 122.867C27.1522 123.751 27.1399 124.572 26.9713 125.329C26.7936 126.079 26.4767 126.747 26.0208 127.332C25.5648 127.917 24.9797 128.405 24.2654 128.797C23.5498 129.181 22.7182 129.45 21.7707 129.604C20.831 129.757 19.961 129.765 19.1606 129.628C18.3509 129.484 17.6372 129.207 17.0193 128.797C16.4014 128.387 15.8891 127.854 15.4826 127.199C15.0747 126.536 14.7988 125.762 14.6549 124.878ZM25.3619 123.135C25.1691 121.951 24.6304 121.131 23.7456 120.675C22.853 120.22 21.6961 120.109 20.2748 120.34C18.8456 120.573 17.7798 121.046 17.0774 121.76C16.375 122.474 16.1202 123.424 16.313 124.608C16.4107 125.208 16.5989 125.717 16.8774 126.133C17.1547 126.542 17.5112 126.865 17.947 127.102C18.3814 127.331 18.8951 127.474 19.4881 127.532C20.0718 127.583 20.719 127.55 21.4297 127.435C22.851 127.203 23.9128 126.731 24.6152 126.016C25.3084 125.296 25.5573 124.335 25.3619 123.135Z" fill="#4F4F4F"/>
<path d="M24.054 112.459L11.9125 111.865L11.9753 110.582C11.9901 110.279 12.1471 110.098 12.4463 110.041L13.7004 109.946C13.171 109.471 12.7441 108.946 12.4199 108.369C12.0957 107.793 11.9515 107.137 11.9875 106.402C12.0274 105.587 12.2873 104.939 12.7674 104.458C13.2479 103.969 13.8811 103.631 14.6672 103.445C14.2363 103.248 13.8677 103.006 13.5613 102.718C13.2554 102.423 13.007 102.099 12.816 101.745C12.6251 101.391 12.491 101.02 12.4139 100.632C12.3372 100.236 12.3086 99.8378 12.3281 99.4382C12.3594 98.799 12.491 98.2368 12.723 97.7515C12.9474 97.2579 13.2638 96.8488 13.6721 96.5244C14.0808 96.192 14.5773 95.9479 15.1616 95.7923C15.738 95.6363 16.3937 95.5762 17.1288 95.6122L24.8595 95.9904L24.7546 98.1358L17.0238 97.7576C16.073 97.7111 15.3437 97.8837 14.8359 98.2754C14.3202 98.6666 14.0432 99.2538 14.0049 100.037C13.9877 100.388 14.0352 100.727 14.1474 101.053C14.252 101.371 14.4183 101.655 14.6463 101.906C14.8743 102.158 15.1686 102.364 15.5291 102.526C15.882 102.68 16.2982 102.768 16.7776 102.792L24.5084 103.17L24.4034 105.315L16.6727 104.937C15.6978 104.889 14.9611 105.05 14.4625 105.418C13.964 105.786 13.6963 106.345 13.6596 107.096C13.6338 107.624 13.7538 108.118 14.0195 108.58C14.2773 109.041 14.6407 109.471 15.1098 109.871L24.1589 110.313L24.054 112.459Z" fill="#4F4F4F"/>
<path d="M153.816 78.3196C153.825 77.6556 153.745 77.0705 153.576 76.5642C153.407 76.0499 153.168 75.6186 152.861 75.2705C152.546 74.9142 152.169 74.6451 151.732 74.4632C151.294 74.2813 150.811 74.1869 150.283 74.1798C149.187 74.1651 148.327 74.4935 147.702 75.1652C147.077 75.8289 146.755 76.8487 146.737 78.2245L146.7 80.9843L153.779 81.0793L153.816 78.3196ZM144.901 78.1999C144.916 77.112 145.056 76.1698 145.323 75.3733C145.582 74.5687 145.947 73.9056 146.418 73.3838C146.889 72.8621 147.454 72.4777 148.113 72.2305C148.773 71.9753 149.507 71.8531 150.314 71.864C151.114 71.8747 151.844 72.0245 152.505 72.3134C153.165 72.6023 153.731 73.0219 154.204 73.5723C154.677 74.1147 155.044 74.7877 155.305 75.5913C155.558 76.3868 155.678 77.3044 155.664 78.3444L155.627 81.1041L162.058 81.1904L162.027 83.5062L144.833 83.2755L144.901 78.1999Z" fill="#4F4F4F"/>
<path d="M153.757 54.9903L165.215 59.0495L164.79 60.2485C164.689 60.535 164.485 60.6666 164.18 60.6432L162.891 60.3647C163.265 61.0575 163.512 61.7731 163.632 62.5116C163.745 63.2475 163.66 64.0151 163.377 64.8145C163.155 65.4403 162.857 65.9585 162.482 66.369C162.103 66.7693 161.667 67.0648 161.175 67.2554C160.683 67.4461 160.14 67.5296 159.546 67.5058C158.954 67.4745 158.334 67.344 157.686 67.1142L150.379 64.5256L151.092 62.5122L158.399 65.1008C159.266 65.408 160.007 65.4497 160.621 65.2259C161.238 64.9946 161.69 64.4717 161.979 63.6573C162.19 63.0615 162.247 62.4579 162.149 61.8463C162.047 61.2244 161.825 60.6067 161.482 59.993L153.044 57.0037L153.757 54.9903Z" fill="#4F4F4F"/>
<path d="M164.857 40.2834C164.897 40.3846 164.92 40.4751 164.926 40.5549C164.932 40.6346 164.905 40.7218 164.845 40.8163C164.781 40.9176 164.669 41.0032 164.511 41.0732C164.346 41.139 164.155 41.2308 163.938 41.3487C163.725 41.4598 163.494 41.6213 163.246 41.8331C162.995 42.0338 162.749 42.3232 162.509 42.7013C162.187 43.2076 161.995 43.7112 161.933 44.2119C161.864 44.7083 161.914 45.1954 162.084 45.6733C162.259 46.1445 162.543 46.5999 162.936 47.0397C163.334 47.4727 163.83 47.878 164.424 48.2557C165.045 48.6506 165.644 48.9317 166.22 49.0989C166.789 49.2619 167.321 49.3202 167.815 49.274C168.307 49.2167 168.756 49.0616 169.163 48.8086C169.568 48.5446 169.916 48.1831 170.208 47.724C170.487 47.2852 170.666 46.8918 170.745 46.5438C170.817 46.1916 170.847 45.8836 170.835 45.6198C170.827 45.3492 170.811 45.1209 170.787 44.935C170.76 44.7381 170.786 44.5789 170.863 44.4573C170.957 44.3088 171.088 44.2305 171.254 44.2225L172.234 44.1346C172.369 44.5334 172.445 44.9368 172.46 45.3448C172.476 45.7528 172.446 46.1651 172.371 46.5818C172.293 46.9874 172.171 47.3884 172.004 47.7849C171.837 48.1813 171.636 48.5652 171.4 48.9365C170.992 49.5779 170.494 50.1002 169.906 50.5036C169.322 50.9002 168.678 51.1594 167.975 51.2812C167.265 51.3987 166.51 51.3641 165.709 51.1773C164.908 50.9905 164.089 50.631 163.252 50.0988C162.489 49.6138 161.85 49.0607 161.335 48.4393C160.825 47.8113 160.465 47.1466 160.257 46.4454C160.046 45.7331 159.998 44.9963 160.112 44.2348C160.231 43.4665 160.537 42.6942 161.031 41.9178C161.49 41.1954 162.011 40.6359 162.595 40.2393C163.177 39.8316 163.816 39.5503 164.511 39.3954L164.857 40.2834Z" fill="#4F4F4F"/>
<path d="M175.424 27.939C175.44 28.0467 175.441 28.1401 175.429 28.2191C175.416 28.2981 175.37 28.3767 175.289 28.4547C175.203 28.5383 175.075 28.5959 174.905 28.6273C174.729 28.6531 174.522 28.6982 174.284 28.7626C174.051 28.8214 173.789 28.9251 173.498 29.0737C173.208 29.2109 172.902 29.4356 172.581 29.7477C172.15 30.1658 171.847 30.6112 171.67 31.0839C171.488 31.5508 171.424 32.0364 171.479 32.5407C171.54 33.0394 171.711 33.5483 171.992 34.0672C172.279 34.5805 172.667 35.0896 173.158 35.5946C173.671 36.1225 174.188 36.5345 174.71 36.8306C175.226 37.121 175.73 37.3008 176.221 37.3702C176.712 37.4282 177.185 37.3813 177.64 37.2295C178.095 37.0664 178.518 36.7953 178.908 36.4163C179.281 36.0539 179.546 35.7127 179.703 35.3925C179.855 35.0666 179.956 34.7738 180.005 34.5143C180.06 34.2492 180.097 34.0234 180.116 33.837C180.136 33.6393 180.198 33.4903 180.301 33.3899C180.427 33.2673 180.572 33.2213 180.736 33.252L181.71 33.3934C181.749 33.8126 181.729 34.2225 181.649 34.623C181.57 35.0235 181.446 35.4177 181.276 35.8056C181.106 36.1822 180.895 36.5441 180.641 36.8912C180.387 37.2382 180.102 37.5651 179.786 37.8717C179.241 38.4012 178.636 38.7941 177.97 39.0504C177.31 39.301 176.624 39.4042 175.912 39.36C175.194 39.31 174.467 39.1014 173.732 38.7343C172.996 38.3672 172.282 37.8279 171.591 37.1164C170.961 36.468 170.468 35.7819 170.11 35.0582C169.759 34.329 169.563 33.5992 169.523 32.8688C169.483 32.1271 169.606 31.399 169.894 30.6847C170.187 29.9648 170.664 29.2843 171.324 28.6433C171.938 28.0469 172.575 27.6233 173.234 27.3726C173.895 27.1106 174.581 26.9848 175.294 26.9951L175.424 27.939Z" fill="#4F4F4F"/>
<path d="M184.417 20.7411L190.06 31.5077L188.168 32.4994L182.525 21.7327L184.417 20.7411ZM183.049 17.1496C183.145 17.3338 183.197 17.5278 183.205 17.7316C183.216 17.9247 183.191 18.1184 183.13 18.3128C183.073 18.4964 182.978 18.6681 182.845 18.8281C182.719 18.9844 182.564 19.1108 182.38 19.2074C182.196 19.304 182.003 19.3595 181.803 19.3741C181.61 19.385 181.422 19.3617 181.238 19.3044C181.051 19.24 180.881 19.1484 180.728 19.0297C180.572 18.9038 180.446 18.7488 180.349 18.5646C180.253 18.3804 180.197 18.1882 180.183 17.9881C180.164 17.7809 180.184 17.5855 180.241 17.4019C180.295 17.2112 180.381 17.0396 180.5 16.887C180.625 16.7308 180.78 16.6043 180.965 16.5078C181.149 16.4112 181.341 16.3556 181.541 16.3411C181.748 16.3228 181.946 16.3459 182.133 16.4103C182.324 16.4639 182.499 16.5571 182.659 16.69C182.822 16.8122 182.952 16.9653 183.049 17.1496Z" fill="#4F4F4F"/>
<path d="M195.259 27.531L192.815 15.6233L194.073 15.3651C194.37 15.304 194.584 15.4111 194.714 15.6866L195.118 16.8778C195.446 16.247 195.849 15.7028 196.327 15.2454C196.804 14.788 197.404 14.4853 198.125 14.3373C198.924 14.1732 199.616 14.2639 200.202 14.6092C200.795 14.9529 201.279 15.4824 201.655 16.1975C201.739 15.7311 201.882 15.3138 202.084 14.9456C202.294 14.5759 202.546 14.2545 202.842 13.9816C203.137 13.7087 203.463 13.4866 203.82 13.3153C204.184 13.1425 204.563 13.0158 204.954 12.9354C205.581 12.8067 206.159 12.7944 206.686 12.8984C207.22 12.993 207.695 13.1977 208.111 13.5125C208.535 13.8257 208.894 14.2459 209.19 14.7731C209.485 15.2925 209.706 15.9127 209.854 16.6337L211.41 24.2156L209.306 24.6475L207.75 17.0656C207.559 16.1331 207.21 15.4696 206.704 15.0752C206.197 14.673 205.56 14.5507 204.792 14.7083C204.447 14.7791 204.13 14.9094 203.843 15.0991C203.561 15.2794 203.327 15.5112 203.14 15.7946C202.953 16.0779 202.826 16.4143 202.759 16.8038C202.699 17.1838 202.716 17.6089 202.813 18.0791L204.369 25.661L202.265 26.0929L200.709 18.511C200.513 17.5549 200.174 16.8812 199.694 16.4898C199.213 16.0984 198.605 15.9784 197.868 16.1296C197.351 16.2357 196.902 16.4749 196.521 16.8471C196.138 17.2115 195.812 17.6705 195.542 18.2241L197.363 27.0991L195.259 27.531Z" fill="#4F4F4F"/>
<path d="M227.19 19.0623C226.207 19.0253 225.363 19.0463 224.66 19.1253C223.965 19.1968 223.391 19.3169 222.938 19.4856C222.493 19.6549 222.162 19.8682 221.943 20.1255C221.732 20.3834 221.615 20.6799 221.592 21.0151C221.569 21.3343 221.602 21.6133 221.69 21.852C221.777 22.0907 221.903 22.292 222.068 22.456C222.242 22.6125 222.446 22.7351 222.68 22.8237C222.923 22.9049 223.184 22.9553 223.463 22.9749C223.838 23.0013 224.184 22.9895 224.5 22.9395C224.817 22.8815 225.116 22.7902 225.398 22.6656C225.687 22.5416 225.962 22.3885 226.224 22.2064C226.493 22.0248 226.757 21.8147 227.014 21.5761L227.19 19.0623ZM220.655 13.6234C221.371 13.024 222.127 12.5919 222.924 12.327C223.72 12.0621 224.589 11.9628 225.531 12.0289C226.209 12.0765 226.804 12.2305 227.315 12.4909C227.826 12.7513 228.247 13.0937 228.578 13.5179C228.909 13.9421 229.147 14.444 229.29 15.0235C229.434 15.603 229.482 16.2319 229.435 16.9102L228.89 24.6671L227.944 24.6007C227.737 24.5862 227.58 24.543 227.472 24.4714C227.366 24.3917 227.287 24.2499 227.238 24.0459L227.079 22.8799C226.739 23.1528 226.409 23.3943 226.09 23.6044C225.771 23.8066 225.438 23.9757 225.092 24.1118C224.746 24.2399 224.379 24.3304 223.99 24.3833C223.609 24.4447 223.187 24.4592 222.724 24.4267C222.253 24.3937 221.815 24.2987 221.409 24.1419C221.003 23.9771 220.654 23.7521 220.361 23.4669C220.076 23.1823 219.856 22.834 219.701 22.4221C219.554 22.0028 219.5 21.5178 219.538 20.9672C219.572 20.4883 219.736 20.0387 220.03 19.6183C220.325 19.1899 220.779 18.8248 221.394 18.5231C222.009 18.2214 222.798 17.9962 223.763 17.8474C224.728 17.6906 225.903 17.6447 227.285 17.7097L227.352 16.764C227.418 15.8223 227.264 15.0978 226.891 14.5904C226.518 14.075 225.941 13.7899 225.158 13.735C224.632 13.698 224.184 13.7347 223.815 13.8452C223.455 13.9482 223.138 14.0743 222.863 14.2234C222.596 14.3651 222.362 14.497 222.161 14.6193C221.969 14.7341 221.781 14.785 221.597 14.7721C221.453 14.762 221.332 14.7175 221.234 14.6383C221.135 14.5513 221.054 14.4493 220.99 14.3326L220.655 13.6234Z" fill="#4F4F4F"/>
<path d="M242.337 18.1311C242.984 17.4815 243.649 17.0349 244.335 16.7913C245.023 16.5402 245.746 16.5534 246.505 16.8307C246.746 16.9186 246.965 17.0287 247.164 17.1609C247.37 17.2959 247.539 17.4513 247.671 17.6272L246.976 19.0727C246.862 19.244 246.715 19.2968 246.535 19.2309C246.43 19.1924 246.284 19.1136 246.098 18.9943C245.911 18.8751 245.69 18.7688 245.435 18.6754C245.074 18.5436 244.732 18.4781 244.408 18.479C244.091 18.4825 243.782 18.5483 243.48 18.6763C243.188 18.7996 242.895 18.9823 242.602 19.2244C242.32 19.4618 242.035 19.7498 241.75 20.0883L239.113 27.3016L237.096 26.5642L241.269 15.1469L242.419 15.5671C242.636 15.6468 242.772 15.743 242.824 15.8559C242.877 15.9687 242.881 16.1321 242.837 16.346L242.337 18.1311Z" fill="#4F4F4F"/>
<path d="M250.876 34.7863C250.076 34.257 249.606 33.6254 249.468 32.8915C249.336 32.162 249.548 31.3768 250.104 30.5359L254.206 24.329L252.985 23.5218C252.878 23.4512 252.808 23.3617 252.774 23.2531C252.745 23.1378 252.774 23.0134 252.863 22.88L253.332 22.1692L255.133 23.0573L257.614 20.1951C257.701 20.1082 257.797 20.0568 257.903 20.0409C258.021 20.0226 258.136 20.051 258.25 20.126L259.151 20.7215L256.842 24.2154L259.775 26.154L258.921 27.4454L255.988 25.5068L251.965 31.5935C251.683 32.0206 251.577 32.406 251.647 32.7497C251.717 33.0933 251.916 33.3732 252.243 33.5893C252.43 33.7128 252.605 33.7954 252.77 33.8369C252.945 33.8761 253.103 33.8988 253.243 33.9049C253.382 33.911 253.501 33.9127 253.599 33.9101C253.707 33.9052 253.788 33.9204 253.842 33.9557C253.935 34.0175 253.981 34.1293 253.98 34.2913L253.938 35.4863C253.441 35.5704 252.921 35.5525 252.377 35.4326C251.837 35.3061 251.337 35.0907 250.876 34.7863Z" fill="#4F4F4F"/>
<path d="M258.916 38.1158C259.075 37.9807 259.247 37.8809 259.434 37.8162C259.626 37.7576 259.815 37.7329 260.002 37.742C260.193 37.7571 260.379 37.8087 260.56 37.8968C260.74 37.9848 260.898 38.1079 261.033 38.2661C261.168 38.4244 261.264 38.5994 261.323 38.7913C261.382 38.9832 261.403 39.175 261.388 39.3668C261.373 39.5585 261.321 39.7445 261.233 39.9248C261.145 40.1051 261.022 40.2628 260.864 40.3978C260.7 40.538 260.522 40.6374 260.33 40.696C260.144 40.7494 259.955 40.7685 259.763 40.7533C259.572 40.7382 259.389 40.684 259.214 40.5907C259.034 40.5027 258.876 40.3796 258.741 40.2214C258.606 40.0631 258.51 39.8881 258.451 39.6962C258.386 39.5095 258.362 39.3203 258.377 39.1285C258.397 38.9429 258.448 38.7625 258.53 38.5874C258.623 38.4132 258.752 38.256 258.916 38.1158Z" fill="#4F4F4F"/>
<path d="M274.506 47.4985C274.401 47.4717 274.314 47.4374 274.246 47.3957C274.177 47.3541 274.122 47.2812 274.081 47.1772C274.036 47.0657 274.032 46.9253 274.068 46.756C274.111 46.5837 274.149 46.3751 274.18 46.13C274.214 45.8923 274.219 45.6108 274.192 45.2854C274.176 44.9645 274.085 44.596 273.919 44.1799C273.697 43.6225 273.401 43.1721 273.032 42.8285C272.67 42.482 272.245 42.2379 271.758 42.0962C271.274 41.962 270.738 41.9257 270.151 41.9875C269.567 42.0567 268.948 42.2216 268.295 42.4824C267.611 42.7549 267.033 43.0759 266.56 43.4453C266.094 43.8117 265.736 44.2087 265.484 44.6363C265.243 45.0683 265.106 45.5235 265.073 46.0018C265.05 46.4846 265.139 46.9786 265.341 47.484C265.534 47.967 265.748 48.3423 265.984 48.61C266.227 48.8747 266.459 49.0792 266.68 49.2236C266.905 49.3753 267.099 49.4959 267.264 49.5852C267.439 49.679 267.553 49.7927 267.607 49.9265C267.672 50.09 267.659 50.2415 267.568 50.381L267.066 51.2273C266.664 51.1035 266.292 50.9286 265.952 50.7024C265.612 50.4762 265.296 50.2107 265.002 49.9058C264.718 49.6054 264.465 49.2716 264.241 48.9044C264.017 48.5373 263.823 48.1493 263.66 47.7406C263.379 47.0346 263.247 46.3251 263.264 45.6121C263.284 44.9065 263.45 44.2329 263.763 43.5915C264.083 42.9472 264.553 42.3549 265.173 41.8149C265.793 41.2748 266.564 40.8211 267.486 40.4537C268.325 40.1189 269.148 39.9244 269.953 39.8703C270.761 39.8237 271.511 39.9211 272.201 40.1625C272.902 40.4084 273.528 40.8005 274.078 41.3389C274.632 41.8847 275.079 42.5849 275.42 43.4395C275.737 44.2346 275.885 44.985 275.865 45.6906C275.855 46.4007 275.71 47.0832 275.428 47.738L274.506 47.4985Z" fill="#4F4F4F"/>
<path d="M281.544 60.8911C281.686 61.7676 281.669 62.581 281.491 63.3313C281.313 64.0816 280.997 64.7492 280.541 65.334C280.085 65.9189 279.495 66.4039 278.771 66.7892C278.057 67.1811 277.23 67.4535 276.29 67.6064C275.343 67.7607 274.468 67.7653 273.667 67.6202C272.866 67.483 272.157 67.2094 271.539 66.7994C270.921 66.3893 270.409 65.8567 270.002 65.2015C269.604 64.545 269.333 63.7785 269.19 62.9021C269.046 62.0177 269.059 61.1971 269.227 60.4402C269.405 59.6899 269.722 59.0223 270.178 58.4374C270.634 57.8526 271.219 57.3642 271.933 56.9723C272.649 56.5884 273.48 56.3193 274.428 56.165C275.368 56.0121 276.238 56.0042 277.038 56.1414C277.848 56.2851 278.561 56.5621 279.179 56.9721C279.797 57.3821 280.31 57.9148 280.716 58.57C281.124 59.233 281.4 60.0068 281.544 60.8911ZM270.837 62.6341C271.03 63.8185 271.568 64.6386 272.453 65.0944C273.346 65.5488 274.503 65.6604 275.924 65.429C277.353 65.1964 278.419 64.723 279.121 64.0089C279.824 63.2947 280.078 62.3455 279.886 61.1611C279.788 60.561 279.6 60.0526 279.321 59.6359C279.044 59.2272 278.687 58.9042 278.252 58.6672C277.817 58.438 277.304 58.2947 276.711 58.2372C276.127 58.1863 275.48 58.2187 274.769 58.3344C273.348 58.5658 272.286 59.0385 271.583 59.7527C270.89 60.4734 270.641 61.4339 270.837 62.6341Z" fill="#4F4F4F"/>
<path d="M272.145 73.3104L284.286 73.9043L284.223 75.1868C284.209 75.4904 284.052 75.671 283.752 75.7284L282.498 75.8233C283.028 76.2977 283.455 76.8232 283.779 77.3997C284.103 77.9763 284.247 78.6321 284.211 79.3672C284.171 80.1822 283.911 80.8303 283.431 81.3114C282.951 81.8005 282.318 82.138 281.532 82.3238C281.962 82.5211 282.331 82.7634 282.637 83.0507C282.943 83.346 283.192 83.6705 283.383 84.0243C283.574 84.378 283.708 84.749 283.785 85.1373C283.861 85.5335 283.89 85.9314 283.871 86.3309C283.839 86.9701 283.708 87.5323 283.476 88.0176C283.251 88.5112 282.935 88.9203 282.527 89.2447C282.118 89.5771 281.621 89.8212 281.037 89.9768C280.461 90.1328 279.805 90.1929 279.07 90.1569L271.339 89.7788L271.444 87.6333L279.175 88.0115C280.126 88.058 280.855 87.8854 281.363 87.4937C281.878 87.1025 282.155 86.5153 282.194 85.7322C282.211 85.3807 282.163 85.0419 282.051 84.7161C281.947 84.3986 281.78 84.1141 281.552 83.8627C281.324 83.6112 281.03 83.4046 280.67 83.2428C280.317 83.0894 279.9 83.0009 279.421 82.9775L271.69 82.5993L271.795 80.4539L279.526 80.832C280.501 80.8797 281.238 80.7195 281.736 80.3515C282.235 79.9834 282.502 79.4238 282.539 78.6727C282.565 78.1453 282.445 77.6509 282.179 77.1893C281.921 76.7282 281.558 76.2979 281.089 75.8985L272.04 75.4559L272.145 73.3104Z" fill="#4F4F4F"/>
<g clip-path="url(#clip0_3_110)">
<path d="M76 126.362L73.4625 124.052C64.45 115.88 58.5 110.49 58.5 103.875C58.5 98.485 62.735 94.25 68.125 94.25C71.17 94.25 74.0925 95.6675 76 97.9075C77.9075 95.6675 80.83 94.25 83.875 94.25C89.265 94.25 93.5 98.485 93.5 103.875C93.5 110.49 87.55 115.88 78.5375 124.07L76 126.362Z" fill="#07A081"/>
</g>
<defs>
<clipPath id="clip0_3_110">
<rect width="42" height="42" fill="white" transform="translate(55 89)"/>
</clipPath>
</defs>
</svg>
