<svg width="181" height="27" viewBox="0 0 181 27" fill="none" xmlns="http://www.w3.org/2000/svg">
<path d="M5.54625 27L7.9025 17.0171L0 10.3026L10.44 9.41447L14.5 0L18.56 9.41447L29 10.3026L21.0975 17.0171L23.4538 27L14.5 21.7066L5.54625 27Z" fill="#FFC933"/>
<path d="M43.5462 27L45.9025 17.0171L38 10.3026L48.44 9.41447L52.5 0L56.56 9.41447L67 10.3026L59.0975 17.0171L61.4538 27L52.5 21.7066L43.5462 27Z" fill="#FFC933"/>
<path d="M81.5462 27L83.9025 17.0171L76 10.3026L86.44 9.41447L90.5 0L94.56 9.41447L105 10.3026L97.0975 17.0171L99.4538 27L90.5 21.7066L81.5462 27Z" fill="#FFC933"/>
<path d="M119.546 27L121.903 17.0171L114 10.3026L124.44 9.41447L128.5 0L132.56 9.41447L143 10.3026L135.097 17.0171L137.454 27L128.5 21.7066L119.546 27Z" fill="#FFC933"/>
<path d="M157.546 27L159.903 17.0171L152 10.3026L162.44 9.41447L166.5 0L170.56 9.41447L181 10.3026L173.097 17.0171L175.454 27L166.5 21.7066L157.546 27Z" fill="#FFC933"/>
</svg>
