<svg width="324" height="72" viewBox="0 0 324 72" fill="none" xmlns="http://www.w3.org/2000/svg">
<path d="M297.858 30.2744C297.841 30.2666 297.812 30.2568 297.767 30.2523L291.354 29.6137C282.903 28.7721 276.14 23.1641 275.118 15.933L274.357 10.5512L297.858 30.2744ZM297.858 30.2744C297.875 30.2822 297.883 30.2894 297.886 30.2923C297.888 30.2943 297.889 30.2956 297.889 30.2964C297.889 30.2972 297.888 30.2985 297.886 30.3004C297.883 30.3034 297.875 30.3105 297.858 30.3183C297.841 30.3262 297.812 30.336 297.767 30.3405C297.767 30.3405 297.767 30.3405 297.767 30.3405L291.354 30.9791C282.903 31.8206 276.14 37.4287 275.118 44.6597L274.357 50.0415M297.858 30.2744L274.357 50.0415M274.357 50.0415C274.357 50.0424 274.357 50.0431 274.357 50.0439C274.356 50.0486 274.356 50.0506 274.344 50.0587C274.321 50.074 274.273 50.0928 274.207 50.0928C274.14 50.0928 274.092 50.074 274.069 50.0587C274.057 50.0506 274.057 50.0486 274.057 50.0439C274.057 50.0432 274.056 50.0424 274.056 50.0416C274.056 50.0415 274.056 50.0415 274.056 50.0415L273.295 44.6597C272.273 37.4287 265.51 31.8206 257.059 30.9791L250.647 30.3405M274.357 50.0415L250.647 30.3405M250.647 30.3405C250.647 30.3405 250.647 30.3405 250.647 30.3405C250.601 30.336 250.572 30.3262 250.555 30.3183C250.538 30.3105 250.53 30.3034 250.527 30.3004C250.525 30.2985 250.524 30.2972 250.524 30.2964C250.524 30.2956 250.525 30.2943 250.527 30.2924C250.53 30.2894 250.538 30.2823 250.555 30.2745C250.572 30.2666 250.601 30.2568 250.647 30.2523C250.647 30.2523 250.647 30.2523 250.647 30.2523L257.059 29.6137C265.51 28.7721 272.273 23.1641 273.295 15.933L274.056 10.5512L250.647 30.3405ZM297.89 30.2973C297.89 30.2973 297.89 30.2971 297.89 30.2968L297.89 30.2973Z" fill="#07A081" stroke="black"/>
<path d="M322.905 51.0027C322.888 50.9948 322.859 50.985 322.813 50.9805L316.401 50.3419C307.95 49.5003 301.187 43.8923 300.164 36.6612L299.404 31.2794L322.905 51.0027ZM322.905 51.0027C322.922 51.0105 322.93 51.0176 322.933 51.0205C322.935 51.0225 322.936 51.0238 322.936 51.0246C322.936 51.0254 322.935 51.0267 322.933 51.0286C322.93 51.0316 322.922 51.0387 322.905 51.0465C322.888 51.0544 322.859 51.0642 322.813 51.0687C322.813 51.0687 322.813 51.0687 322.813 51.0687L316.401 51.7073C307.95 52.5489 301.187 58.1569 300.164 65.3879L299.404 70.7697M322.905 51.0027L299.404 70.7697M299.404 70.7697C299.403 70.7706 299.403 70.7714 299.403 70.7721C299.403 70.7768 299.403 70.7788 299.391 70.7869C299.368 70.8023 299.32 70.821 299.253 70.821C299.187 70.821 299.138 70.8023 299.116 70.7869C299.104 70.7788 299.104 70.7768 299.103 70.7721C299.103 70.7714 299.103 70.7706 299.103 70.7698C299.103 70.7697 299.103 70.7697 299.103 70.7697L298.342 65.3879C297.32 58.1569 290.557 52.5489 282.106 51.7073L275.693 51.0687M299.404 70.7697L275.693 51.0687M275.693 51.0687C275.693 51.0687 275.693 51.0687 275.693 51.0687C275.648 51.0642 275.619 51.0544 275.601 51.0465C275.584 51.0387 275.577 51.0316 275.574 51.0286C275.572 51.0267 275.571 51.0254 275.571 51.0246C275.571 51.0238 275.572 51.0225 275.574 51.0206C275.577 51.0176 275.584 51.0105 275.601 51.0027C275.619 50.9948 275.648 50.985 275.693 50.9805C275.693 50.9805 275.693 50.9805 275.693 50.9805L282.106 50.3419C290.557 49.5003 297.32 43.8923 298.342 36.6612L299.103 31.2794L275.693 51.0687ZM322.936 51.0255C322.936 51.0255 322.936 51.0253 322.936 51.025L322.936 51.0255Z" fill="#07A081" stroke="black"/>
<path d="M57.2606 25.3168C57.3812 25.3294 57.4362 25.3715 57.4601 25.3975C57.4867 25.4265 57.5 25.4626 57.5 25.5C57.5 25.5374 57.4867 25.5735 57.4601 25.6025C57.4362 25.6285 57.3812 25.6706 57.2606 25.6832C57.2606 25.6832 57.2606 25.6832 57.2606 25.6832L49.5709 26.4855C39.4545 27.541 31.4052 34.5672 30.1908 43.5669L29.2784 50.3285C29.2709 50.3838 29.2484 50.4153 29.2117 50.4414C29.1664 50.4735 29.0915 50.5 29 50.5C28.9084 50.5 28.8335 50.4735 28.7883 50.4414C28.7516 50.4153 28.7291 50.3838 28.7216 50.3286C28.7216 50.3285 28.7216 50.3285 28.7216 50.3285L27.8092 43.5669C26.5948 34.5672 18.5455 27.541 8.4292 26.4855L0.739486 25.6832C0.61888 25.6706 0.563815 25.6285 0.53992 25.6025C0.51327 25.5735 0.499999 25.5374 0.499999 25.5C0.499999 25.4626 0.51327 25.4265 0.53992 25.3975C0.563815 25.3715 0.61888 25.3294 0.739486 25.3168L8.4292 24.5145C18.5455 23.459 26.5948 16.4328 27.8092 7.43306L28.7216 0.671427C28.729 0.616219 28.7515 0.584745 28.7883 0.558627C28.8335 0.52646 28.9084 0.499999 29 0.499999C29.0916 0.499999 29.1665 0.52646 29.2117 0.558627C29.2484 0.584745 29.271 0.616219 29.2784 0.671427L30.1908 7.43306C31.4052 16.4328 39.4545 23.459 49.5709 24.5145L57.2606 25.3168Z" fill="#07A081" stroke="black"/>
<path d="M275.835 51.4345C275.818 51.4266 275.788 51.4168 275.743 51.4123L269.331 50.7737C260.88 49.9321 254.116 44.3241 253.094 37.093L252.333 31.7112L275.835 51.4345ZM275.835 51.4345C275.852 51.4423 275.86 51.4494 275.862 51.4524C275.864 51.4543 275.865 51.4556 275.866 51.4564C275.865 51.4572 275.864 51.4585 275.862 51.4605C275.86 51.4634 275.852 51.4705 275.835 51.4783C275.818 51.4862 275.788 51.496 275.743 51.5005C275.743 51.5005 275.743 51.5005 275.743 51.5005L269.331 52.1391C260.88 52.9807 254.116 58.5887 253.094 65.8197L252.333 71.2015M275.835 51.4345L252.333 71.2015M252.333 71.2015C252.333 71.2024 252.333 71.2032 252.333 71.2039C252.332 71.2087 252.332 71.2106 252.32 71.2188C252.298 71.2341 252.249 71.2528 252.183 71.2528C252.116 71.2528 252.068 71.2341 252.046 71.2188C252.034 71.2106 252.033 71.2087 252.033 71.2039C252.033 71.2032 252.033 71.2024 252.033 71.2016C252.033 71.2016 252.033 71.2016 252.033 71.2015L251.272 65.8197C250.249 58.5887 243.486 52.9807 235.035 52.1391L228.623 51.5005M252.333 71.2015L228.623 51.5005M228.623 51.5005C228.623 51.5005 228.623 51.5005 228.623 51.5005C228.578 51.496 228.548 51.4862 228.531 51.4783C228.514 51.4705 228.506 51.4634 228.503 51.4604C228.502 51.4585 228.501 51.4572 228.5 51.4564C228.501 51.4556 228.502 51.4543 228.503 51.4524C228.506 51.4494 228.514 51.4423 228.531 51.4345C228.548 51.4266 228.578 51.4168 228.623 51.4123C228.623 51.4123 228.623 51.4123 228.623 51.4123L235.035 50.7737C243.486 49.9321 250.249 44.3241 251.272 37.093L252.033 31.7112L228.623 51.5005ZM275.866 51.4573C275.866 51.4573 275.866 51.4572 275.866 51.4569L275.866 51.4573Z" fill="#07A081" stroke="black"/>
</svg>
