<svg width="324" height="74" viewBox="0 0 324 74" fill="none" xmlns="http://www.w3.org/2000/svg">
<path d="M297.766 30.9746C297.766 30.9746 297.766 30.9746 297.766 30.9746C297.81 30.9792 297.839 30.9889 297.856 30.9967C297.872 31.0044 297.88 31.0115 297.883 31.015C297.889 31.0209 297.89 31.0249 297.89 31.0274C297.89 31.0299 297.889 31.0339 297.883 31.0398C297.88 31.0432 297.872 31.0504 297.856 31.0581C297.839 31.0659 297.81 31.0756 297.766 31.0801C297.766 31.0801 297.766 31.0801 297.766 31.0801L291.354 31.7288C282.897 32.5842 276.139 38.2832 275.118 45.6196L274.357 51.0864C274.357 51.0865 274.357 51.0865 274.357 51.0865C274.355 51.0982 274.354 51.1011 274.341 51.1104C274.319 51.1257 274.272 51.1442 274.207 51.1442C274.142 51.1442 274.095 51.1257 274.072 51.1104C274.059 51.1011 274.058 51.0982 274.056 51.0865C274.056 51.0865 274.056 51.0865 274.056 51.0864L273.296 45.6196C272.275 38.2832 265.516 32.5842 257.06 31.7288L250.647 31.0801C250.647 31.0801 250.647 31.0801 250.647 31.0801C250.603 31.0756 250.574 31.0659 250.558 31.0581C250.541 31.0503 250.533 31.0432 250.53 31.0398C250.527 31.0372 250.526 31.035 250.525 31.0332C250.524 31.0307 250.524 31.0288 250.524 31.0274C250.524 31.0249 250.524 31.0209 250.53 31.015C250.533 31.0116 250.541 31.0044 250.558 30.9967C250.574 30.9889 250.603 30.9792 250.647 30.9746C250.647 30.9746 250.647 30.9746 250.647 30.9746L257.06 30.326C265.516 29.4706 272.275 23.7715 273.296 16.435L274.056 10.9683C274.058 10.9566 274.059 10.9537 274.072 10.9444C274.095 10.929 274.142 10.9105 274.207 10.9105C274.272 10.9105 274.319 10.929 274.341 10.9444C274.355 10.9537 274.355 10.9566 274.357 10.9683L275.118 16.435C276.139 23.7715 282.897 29.4706 291.354 30.326L297.766 30.9746Z" fill="#07A081" stroke="black"/>
<path d="M322.813 52.0301C322.813 52.0301 322.813 52.0301 322.813 52.0301C322.857 52.0346 322.886 52.0444 322.902 52.0521C322.919 52.0599 322.927 52.067 322.93 52.0704C322.936 52.0764 322.936 52.0803 322.936 52.0829C322.936 52.0854 322.936 52.0893 322.93 52.0953C322.927 52.0987 322.919 52.1058 322.902 52.1136C322.886 52.1214 322.857 52.1311 322.813 52.1356C322.813 52.1356 322.813 52.1356 322.813 52.1356L316.4 52.7842C307.944 53.6397 301.185 59.3387 300.164 66.6751L299.403 72.1419C299.403 72.1419 299.403 72.142 299.403 72.142C299.402 72.1537 299.401 72.1565 299.388 72.1659C299.365 72.1812 299.318 72.1997 299.253 72.1997C299.188 72.1997 299.141 72.1812 299.119 72.1659C299.105 72.1565 299.105 72.1537 299.103 72.142C299.103 72.142 299.103 72.1419 299.103 72.1419L298.342 66.6751C297.321 59.3387 290.563 53.6397 282.106 52.7842L275.694 52.1356C275.694 52.1356 275.694 52.1356 275.694 52.1356C275.649 52.1311 275.621 52.1214 275.604 52.1136C275.588 52.1058 275.58 52.0987 275.576 52.0952C275.574 52.0927 275.573 52.0905 275.572 52.0887C275.57 52.0862 275.57 52.0843 275.57 52.0829C275.57 52.0804 275.571 52.0764 275.576 52.0705C275.58 52.067 275.588 52.0599 275.604 52.0522C275.621 52.0444 275.649 52.0346 275.694 52.0301C275.694 52.0301 275.694 52.0301 275.694 52.0301L282.106 51.3815C290.563 50.526 297.321 44.827 298.342 37.4905L299.103 32.0237C299.105 32.012 299.105 32.0092 299.119 31.9999C299.141 31.9845 299.188 31.966 299.253 31.966C299.318 31.966 299.365 31.9845 299.388 31.9999C299.401 32.0092 299.402 32.012 299.403 32.0237L300.164 37.4905C301.185 44.827 307.944 50.526 316.4 51.3815L322.813 52.0301Z" fill="#07A081" stroke="black"/>
<path d="M57.2598 25.9612C57.3783 25.9738 57.4329 26.0158 57.4575 26.0429C57.4851 26.0735 57.5 26.1131 57.5 26.1553C57.5 26.1975 57.4851 26.237 57.4575 26.2676C57.4329 26.2948 57.3783 26.3367 57.2598 26.3493C57.2598 26.3493 57.2598 26.3493 57.2598 26.3493L49.5701 27.1643C39.4483 28.237 31.4039 35.3765 30.1907 44.5095L29.2783 51.3779C29.2702 51.4388 29.2453 51.4726 29.2087 51.499C29.1637 51.5316 29.0899 51.5579 29 51.5579C28.9101 51.5579 28.8363 51.5316 28.7913 51.499C28.7546 51.4726 28.7298 51.4388 28.7217 51.3779L27.8093 44.5095C26.5961 35.3765 18.5516 28.237 8.43001 27.1643L0.740294 26.3493C0.740283 26.3493 0.740268 26.3493 0.740256 26.3493C0.621768 26.3367 0.567145 26.2947 0.542548 26.2676C0.514853 26.237 0.499999 26.1974 0.499999 26.1553C0.499999 26.1131 0.514853 26.0735 0.542548 26.043C0.567149 26.0158 0.621779 25.9738 0.740294 25.9612L8.43001 25.1463C18.5516 24.0735 26.5961 16.934 27.8093 7.80097L28.7217 0.932575C28.7298 0.871708 28.7546 0.837961 28.7913 0.811478C28.8363 0.778966 28.9101 0.752623 29 0.752623C29.0899 0.752623 29.1637 0.778966 29.2087 0.811478C29.2454 0.837953 29.2702 0.871687 29.2783 0.932518C29.2783 0.932537 29.2783 0.932556 29.2783 0.932575L30.1907 7.80097C31.4039 16.934 39.4483 24.0736 49.5701 25.1463L57.2598 25.9612Z" fill="#07A081" stroke="black"/>
<path d="M275.742 52.4688C275.742 52.4688 275.742 52.4688 275.742 52.4688C275.787 52.4733 275.815 52.483 275.832 52.4908C275.849 52.4985 275.856 52.5057 275.86 52.5091C275.865 52.515 275.866 52.519 275.866 52.5215C275.866 52.524 275.865 52.528 275.86 52.5339C275.856 52.5373 275.849 52.5445 275.832 52.5522C275.815 52.56 275.787 52.5697 275.742 52.5742C275.742 52.5742 275.742 52.5743 275.742 52.5743L269.33 53.2229C260.873 54.0783 254.115 59.7774 253.094 67.1138L252.333 72.5806C252.333 72.5806 252.333 72.5806 252.333 72.5806C252.331 72.5923 252.331 72.5952 252.317 72.6045C252.295 72.6198 252.248 72.6384 252.183 72.6384C252.118 72.6384 252.071 72.6198 252.049 72.6045C252.035 72.5952 252.034 72.5923 252.033 72.5806C252.033 72.5806 252.033 72.5806 252.033 72.5806L251.272 67.1138C250.251 59.7774 243.492 54.0783 235.036 53.2229L228.624 52.5742C228.624 52.5742 228.624 52.5742 228.624 52.5742C228.579 52.5697 228.551 52.56 228.534 52.5522C228.517 52.5445 228.509 52.5373 228.506 52.5339C228.504 52.5314 228.502 52.5292 228.501 52.5273C228.5 52.5248 228.5 52.5229 228.5 52.5215C228.5 52.519 228.5 52.5151 228.506 52.5091C228.509 52.5057 228.517 52.4985 228.534 52.4908C228.551 52.483 228.579 52.4733 228.624 52.4688C228.624 52.4688 228.624 52.4688 228.624 52.4688L235.036 51.8201C243.492 50.9647 250.251 45.2657 251.272 37.9292L252.033 32.4624C252.034 32.4507 252.035 32.4478 252.049 32.4385C252.071 32.4232 252.118 32.4047 252.183 32.4047C252.248 32.4047 252.295 32.4232 252.317 32.4385C252.331 32.4478 252.331 32.4507 252.333 32.4624L253.094 37.9292C254.115 45.2657 260.873 50.9647 269.33 51.8201L275.742 52.4688Z" fill="#07A081" stroke="black"/>
</svg>
