<svg width="121" height="111" viewBox="0 0 121 111" fill="none" xmlns="http://www.w3.org/2000/svg">
<path d="M88.5809 26.662C89.5482 26.7648 89.5482 28.0212 88.5809 28.124L80.4667 28.9859C69.989 30.0988 61.7282 37.4937 60.485 46.8729L59.5222 54.1366C59.4074 55.0025 58.0038 55.0025 57.889 54.1366L56.9262 46.8729C55.683 37.4937 47.4221 30.0988 36.9446 28.9859L28.8304 28.124C27.863 28.0212 27.863 26.7648 28.8304 26.662L36.9446 25.8001C47.4221 24.6872 55.683 17.2924 56.9262 7.91303L57.889 0.649382C58.0038 -0.216463 59.4074 -0.216462 59.5222 0.649382L60.485 7.91303C61.7282 17.2924 69.9891 24.6872 80.4667 25.8001L88.5809 26.662Z" fill="#07A081"/>
<path d="M120.275 54.6379C121.242 54.7407 121.242 55.9971 120.275 56.0999L112.16 56.9618C101.683 58.0747 93.4219 65.4695 92.1787 74.8488L91.2159 82.1124C91.101 82.9784 89.6975 82.9784 89.5826 82.1124L88.6198 74.8488C87.3766 65.4695 79.1158 58.0747 68.6382 56.9618L60.524 56.0999C59.5567 55.9971 59.5567 54.7407 60.524 54.6379L68.6382 53.776C79.1158 52.6631 87.3766 45.2682 88.6198 35.8889L89.5826 28.6252C89.6975 27.7594 91.101 27.7594 91.2159 28.6252L92.1787 35.8889C93.4219 45.2682 101.683 52.6631 112.16 53.776L120.275 54.6379Z" fill="#07A081"/>
<path d="M89.6738 82.6137C90.6411 82.7165 90.6411 83.9729 89.6738 84.0757L81.5596 84.9376C71.0819 86.0505 62.8211 93.4454 61.5779 102.825L60.6151 110.088C60.5003 110.954 59.0967 110.954 58.9819 110.088L58.0191 102.825C56.7759 93.4454 48.515 86.0505 38.0375 84.9376L29.9233 84.0757C28.9559 83.9729 28.9559 82.7165 29.9233 82.6137L38.0375 81.7518C48.515 80.6389 56.7759 73.244 58.0191 63.8647L58.9819 56.6011C59.0967 55.7352 60.5003 55.7352 60.6151 56.6011L61.5779 63.8647C62.8211 73.244 71.0819 80.6389 81.5596 81.7518L89.6738 82.6137Z" fill="#07A081"/>
<path d="M60.7124 55.2207C61.6796 55.3235 61.6796 56.5799 60.7124 56.6827L52.5982 57.5446C42.1205 58.6575 33.8597 66.0524 32.6165 75.4316L31.6537 82.6953C31.5388 83.5612 30.1353 83.5612 30.0204 82.6953L29.0577 75.4316C27.8144 66.0524 19.5536 58.6575 9.07605 57.5446L0.96183 56.6827C-0.00551932 56.5799 -0.00551927 55.3235 0.96183 55.2207L9.07605 54.3588C19.5536 53.2459 27.8144 45.851 29.0577 36.4717L30.0204 29.2081C30.1353 28.3422 31.5388 28.3422 31.6537 29.2081L32.6165 36.4717C33.8597 45.851 42.1205 53.2459 52.5982 54.3588L60.7124 55.2207Z" fill="#07A081"/>
</svg>
