<svg width="134" height="140" viewBox="0 0 134 140" fill="none" xmlns="http://www.w3.org/2000/svg">
<path d="M98.1605 34.456C99.2297 34.5851 99.2297 36.1623 98.1605 36.2914L89.1904 37.3733C77.6077 38.7704 68.4755 48.0535 67.1012 59.8277L66.0369 68.9461C65.9099 70.0331 64.3583 70.0331 64.2313 68.9461L63.167 59.8277C61.7927 48.0535 52.6605 38.7704 41.0779 37.3733L32.1078 36.2914C31.0384 36.1623 31.0384 34.5851 32.1078 34.456L41.0779 33.3741C52.6605 31.977 61.7927 22.6939 63.167 10.9196L64.2313 1.80122C64.3583 0.714288 65.9099 0.714288 66.0369 1.80122L67.1012 10.9196C68.4755 22.6939 77.6077 31.977 89.1904 33.3741L98.1605 34.456Z" fill="#07A081"/>
<path d="M133.197 69.5753C134.266 69.7044 134.266 71.2816 133.197 71.4107L124.227 72.4926C112.644 73.8897 103.512 83.1728 102.138 94.947L101.073 104.065C100.946 105.152 99.3948 105.152 99.2678 104.065L98.2035 94.947C96.8291 83.1728 87.697 73.8897 76.1143 72.4926L67.1443 71.4107C66.0749 71.2816 66.0749 69.7044 67.1443 69.5753L76.1143 68.4934C87.697 67.0963 96.8291 57.8132 98.2035 46.0389L99.2678 36.9205C99.3948 35.8336 100.946 35.8336 101.073 36.9205L102.138 46.0389C103.512 57.8132 112.644 67.0963 124.227 68.4934L133.197 69.5753Z" fill="#07A081"/>
<path d="M99.3686 104.695C100.438 104.824 100.438 106.401 99.3686 106.53L90.3986 107.612C78.8158 109.009 69.6837 118.292 68.3093 130.066L67.245 139.185C67.118 140.272 65.5665 140.272 65.4395 139.185L64.3752 130.066C63.0008 118.292 53.8687 109.009 42.286 107.612L33.316 106.53C32.2466 106.401 32.2466 104.824 33.316 104.695L42.286 103.613C53.8687 102.216 63.0008 92.9325 64.3752 81.1582L65.4395 72.0398C65.5665 70.9529 67.118 70.9529 67.245 72.0398L68.3093 81.1582C69.6837 92.9325 78.8158 102.216 90.3986 103.613L99.3686 104.695Z" fill="#07A081"/>
<path d="M67.3526 70.307C68.4218 70.4361 68.4218 72.0133 67.3526 72.1424L58.3825 73.2243C46.7997 74.6214 37.6676 83.9045 36.2933 95.6787L35.2289 104.797C35.1019 105.884 33.5504 105.884 33.4234 104.797L32.3591 95.6787C30.9847 83.9045 21.8526 74.6214 10.2699 73.2243L1.29989 72.1424C0.23051 72.0133 0.23051 70.4361 1.29989 70.307L10.2699 69.2251C21.8526 67.828 30.9847 58.5449 32.3591 46.7706L33.4234 37.6522C33.5504 36.5653 35.102 36.5653 35.2289 37.6522L36.2933 46.7706C37.6676 58.5449 46.7997 67.828 58.3825 69.2251L67.3526 70.307Z" fill="#07A081"/>
</svg>
