<svg width="58" height="51" viewBox="0 0 58 51" fill="none" xmlns="http://www.w3.org/2000/svg">
<path d="M57.2606 25.3168C57.3812 25.3294 57.4362 25.3715 57.4601 25.3975C57.4867 25.4265 57.5 25.4626 57.5 25.5C57.5 25.5374 57.4867 25.5735 57.4601 25.6025C57.4362 25.6285 57.3812 25.6706 57.2606 25.6832C57.2606 25.6832 57.2606 25.6832 57.2606 25.6832L49.5709 26.4855C39.4545 27.541 31.4052 34.5672 30.1908 43.5669L29.2784 50.3285C29.2709 50.3838 29.2484 50.4153 29.2117 50.4414C29.1664 50.4735 29.0915 50.5 29 50.5C28.9084 50.5 28.8335 50.4735 28.7883 50.4414C28.7516 50.4153 28.7291 50.3838 28.7216 50.3286C28.7216 50.3285 28.7216 50.3285 28.7216 50.3285L27.8092 43.5669C26.5948 34.5672 18.5455 27.541 8.4292 26.4855L0.739486 25.6832C0.61888 25.6706 0.563815 25.6285 0.53992 25.6025C0.51327 25.5735 0.499999 25.5374 0.499999 25.5C0.499999 25.4626 0.51327 25.4265 0.53992 25.3975C0.563815 25.3715 0.61888 25.3294 0.739486 25.3168L8.4292 24.5145C18.5455 23.459 26.5948 16.4328 27.8092 7.43306L28.7216 0.671427C28.729 0.616219 28.7515 0.584745 28.7883 0.558627C28.8335 0.52646 28.9084 0.499999 29 0.499999C29.0916 0.499999 29.1665 0.52646 29.2117 0.558627C29.2484 0.584745 29.271 0.616219 29.2784 0.671427L30.1908 7.43306C31.4052 16.4328 39.4545 23.459 49.5709 24.5145L57.2606 25.3168Z" fill="#07A081" stroke="black"/>
</svg>
